# xmcd
#
# Track frame offsets:
# 150
# 19082
# 35402
# 52715
# 66912
# 82380
# 101390
# 121412
# 141770
# 159217
# 174187
# 188495
# 216705
#
# Disc length: 4440 seconds
#
#
# Revision: 4
# Processed by: cddbd v1.5.1PL2 Copyright (c) Steve Scherf et al.
# Submitted via: FreeRIP 2.945 
#
DISCID=aa11560d
DTITLE=Intocable - Diez [CD2)
DYEAR=2005
DGENRE=Ballad
TTITLE0=Aire (Intocable)
TTITLE1=Conqueta (Kinky)
TTITLE2=Enseñame A Olvidarte (Jumbo)
TTITLE3=En Paz Descanse (Tego Calderon, DJ Kane, Ice)
TTITLE4=Ya Ves (Volovan)
TTITLE5=Estas Que Te Pelas (Alan Marco)
TTITLE6=Fuerte No Soy (Pepe Aguilar)
TTITLE7=Dejate Amar (Intocable)
TTITLE8=Es Tan Bello (DJ Kane)
TTITLE9=Dejame Amarte (Intocable)
TTITLE10=Y Todo Para Que (Natalia Lafourcade)
TTITLE11=Entre Querer Y Amar (Intocable)
TTITLE12=Datos
EXTD=ID3G: 116 YEAR: 2005
EXTT0=
EXTT1=
EXTT2=
EXTT3=
EXTT4=
EXTT5=
EXTT6=
EXTT7=
EXTT8=
EXTT9=
EXTT10=
EXTT11=
EXTT12=
PLAYORDER=
